<?xml version="1.0" encoding="utf-8"?>
<!-- Generator: Adobe Illustrator 19.0.0, SVG Export Plug-In . SVG Version: 6.00 Build 0)  -->
<svg version="1.1" id="Layer_1" xmlns="http://www.w3.org/2000/svg" xmlns:xlink="http://www.w3.org/1999/xlink" x="0px" y="0px"
	 viewBox="0 0 512 512" style="enable-background:new 0 0 512 512;" xml:space="preserve">
<g id="XMLID_4_">
	<path id="XMLID_9_" d="M153.6,409.6c-27.9,0-51.2,23.3-51.2,51.2c0,27.9,22.3,51.2,51.2,51.2s51.2-23.3,51.2-51.2
		C204.8,432.9,181.5,409.6,153.6,409.6z M0,0v51.2h51.2l92.2,194.6l-34.4,62.4c-3.7,7.4-6.5,15.8-6.5,24.2
		c0,27.9,23.3,51.2,51.2,51.2h307.2v-51.2h-296c-3.7,0-6.5-2.8-6.5-6.5l0.9-2.8l23.3-41.9h190.8c19.5,0,36.3-10.2,44.7-26.1
		l91.2-165.7c1.9-3.7,2.8-8.4,2.8-12.1c0-14-11.2-26.1-26.1-26.1H108L83.8,0C83.8,0,0,0,0,0z M409.6,409.6
		c-27.9,0-51.2,23.3-51.2,51.2c0,27.9,22.3,51.2,51.2,51.2c27.9,0,51.2-23.3,51.2-51.2C460.8,432.9,437.5,409.6,409.6,409.6z"/>
</g>
</svg>
